# xmcd
#
# Track frame offsets: 
#        150
#        19087
#        38721
#        51980
#        69921
#        85883
#        105307
#        120434
#        138984
#        158176
#        172747
#        186441
#
# Disc length: 2698 seconds
#
# Revision: 2
# Processed by: cddbd v1.5.2PL0 Copyright (c) Steve Scherf et al.
# Submitted via: ExactAudioCopy v0.99pb4
#
DISCID=910a880c
DTITLE=Белый Орел - Пою, Что Хочу
DYEAR=2005
DGENRE=Pop
TTITLE0=Когда Ты Вернешься
TTITLE1=Дождь Над Касабланкой
TTITLE2=Моя Хорошая
TTITLE3=Не Убивай Любовь
TTITLE4=Удивительный День
TTITLE5=Неповторимая
TTITLE6=Не Лги Себе
TTITLE7=Ты Же Этого Хотела
TTITLE8=Любовь Такая
TTITLE9=Забава
TTITLE10=Друг
TTITLE11=За Нами
EXTD=
EXTT0=
EXTT1=
EXTT2=
EXTT3=
EXTT4=
EXTT5=
EXTT6=
EXTT7=
EXTT8=
EXTT9=
EXTT10=
EXTT11=
PLAYORDER=
